<?xml version="1.0" encoding="iso-8859-1"?>
<!-- Generator: Adobe Illustrator 19.0.0, SVG Export Plug-In . SVG Version: 6.00 Build 0)  -->
<svg version="1.1" id="Capa_1" xmlns="http://www.w3.org/2000/svg" xmlns:xlink="http://www.w3.org/1999/xlink" x="0px" y="0px"
	 viewBox="0 0 512 512" style="enable-background:new 0 0 512 512;" xml:space="preserve">
<path style="fill:#499421;" d="M342.47,97.056l-19.672,51.282H189.212l-19.672-51.282c-2.663-6.925-2.045-14.671,1.66-21.09
	l32.369-56.081c4.394-7.604,12.504-12.291,21.282-12.291h62.297c8.778,0,16.888,4.688,21.282,12.281l3.615,6.257l28.764,49.834
	C344.515,82.385,345.133,90.13,342.47,97.056z"/>
<g>
	<path style="fill:#96C133;" d="M342.47,97.056l-19.672,51.282H211.466l-12.565-32.753c-2.663-6.915-2.045-14.671,1.66-21.09
		l32.369-56.081c4.394-7.604,12.504-12.281,21.282-12.281h57.832l28.764,49.834C344.515,82.385,345.133,90.13,342.47,97.056z"/>
	<path style="fill:#96C133;" d="M208.003,404.898l-96.194,84.689c-9.294,8.183-23.462,7.283-31.646-2.011l-39.948-45.365
		c-8.185-9.296-7.285-23.466,2.012-31.65l8.895-7.83l87.295-76.867l52.973,60.171L208.003,404.898z"/>
</g>
<path style="fill:#499421;" d="M191.389,386.035l-67.436,59.371c-10.968,9.657-27.688,8.594-37.346-2.374l-35.486-40.301
	l87.295-76.867L191.389,386.035z"/>
<path style="fill:#96C133;" d="M304.005,404.895l69.584-79.028l96.19,84.694c9.294,8.184,10.196,22.353,2.011,31.648l-39.948,45.37
	c-8.184,9.294-22.353,10.195-31.648,2.011L304.005,404.895z"/>
<g>
	<path style="fill:#499421;" d="M304.005,214.713l69.584,79.029l96.19-84.694c9.294-8.184,10.196-22.353,2.011-31.648l-39.948-45.37
		c-8.184-9.294-22.353-10.195-31.648-2.011L304.005,214.713z"/>
	<path style="fill:#499421;" d="M208.003,214.715l-40.003,45.43l-29.584,33.594L42.224,209.05
		c-9.296-8.184-10.197-22.353-2.012-31.648l39.949-45.373c8.184-9.296,22.354-10.196,31.649-2.011l5.222,4.599L208.003,214.715z"/>
</g>
<path style="fill:#96C133;" d="M208.003,214.715l-40.003,45.43L98.615,199.06c-11.921-10.494-13.077-28.666-2.583-40.587
	l21.001-23.855L208.003,214.715z"/>
<path style="fill:#499421;" d="M320.62,386.035l67.436,59.371c10.968,9.657,27.688,8.594,37.346-2.374l35.486-40.302l-87.295-76.867
	L320.62,386.035z"/>
<path style="fill:#96C133;" d="M304.005,214.715l40.003,45.43l69.386-61.084c11.921-10.494,13.077-28.666,2.583-40.587
	l-21.001-23.855L304.005,214.715z"/>
<circle style="fill:#FFC022;" cx="256.004" cy="320.134" r="184.27"/>
<path style="fill:#E58B25;" d="M254.561,504.393c-101.116-0.77-182.832-82.962-182.832-184.26s81.717-183.49,182.832-184.26
	c-60.657,1.276-109.61,83.286-109.61,184.26S193.904,503.118,254.561,504.393z"/>
<g>
	<path style="fill:#FF9A47;" d="M132.999,338.804l45.328,78.517l-30.162,52.254c-41.562-30.04-70.093-76.998-75.51-130.771
		L132.999,338.804L132.999,338.804z"/>
	<path style="fill:#FF9A47;" d="M132.999,301.464H72.656c5.417-53.772,33.948-100.731,75.51-130.771l30.162,52.254L132.999,301.464z
		"/>
	<path style="fill:#FF9A47;" d="M210.666,204.276l-30.182-52.274c23.044-10.368,48.609-16.139,75.52-16.139
		c26.901,0,52.466,5.771,75.51,16.139l-30.182,52.274H210.666z"/>
	<path style="fill:#FF9A47;" d="M301.333,435.991l30.182,52.274c-23.044,10.368-48.609,16.139-75.51,16.139
		c-26.912,0-52.476-5.771-75.52-16.139l30.182-52.274H301.333z"/>
	<polygon style="fill:#FF9A47;" points="301.333,241.616 346.671,320.134 301.333,398.651 210.666,398.651 165.338,320.134 
		210.666,241.616 	"/>
	<path style="fill:#FF9A47;" d="M379.01,338.804h60.333c-5.417,53.772-33.938,100.721-75.5,130.771l-30.172-52.254L379.01,338.804z"
		/>
	<path style="fill:#FF9A47;" d="M379.01,301.464l-45.339-78.517l30.172-52.254c41.562,30.05,70.083,76.999,75.5,130.771H379.01z"/>
</g>
<g>
	<path style="fill:#E25D1B;" d="M148.328,365.361c3.858,25.393,10.894,48.68,20.371,68.646l-20.533,35.568
		c-41.562-30.04-70.093-76.998-75.51-130.771h60.343L148.328,365.361z"/>
	<path style="fill:#E25D1B;" d="M148.166,170.693l20.533,35.568c-9.477,19.966-16.513,43.253-20.371,68.646l-15.329,26.557H72.656
		C78.073,247.691,106.604,200.733,148.166,170.693z"/>
	<path style="fill:#E25D1B;" d="M254.496,504.393c-0.496,0-1.002-0.01-1.509-0.02c-0.628,0-1.266-0.02-1.893-0.041h-0.213
		c-0.607-0.02-1.215-0.03-1.822-0.061c-0.547-0.02-1.104-0.04-1.65-0.071c-0.8-0.03-1.6-0.071-2.41-0.121
		c-0.496-0.02-1.002-0.051-1.509-0.091c-22.325-1.498-43.567-6.976-63.006-15.724l10.692-18.508
		C209.036,491.11,230.875,503.867,254.496,504.393z"/>
	<path style="fill:#E25D1B;" d="M191.176,170.51l-10.692-18.508c19.439-8.748,40.681-14.225,63.006-15.724
		c0.506-0.04,1.012-0.071,1.509-0.091c0.81-0.051,1.61-0.091,2.41-0.121c0.547-0.03,1.104-0.051,1.65-0.071
		c0.607-0.03,1.215-0.04,1.822-0.061h0.213c0.628-0.02,1.266-0.04,1.893-0.04c0.506-0.01,1.012-0.02,1.509-0.02
		C230.875,136.4,209.036,149.157,191.176,170.51z"/>
</g>
<path d="M447.868,320.134c0-105.796-86.071-191.867-191.867-191.867c-105.796,0-191.867,86.071-191.867,191.867
	S150.205,512,256.002,512S447.868,425.93,447.868,320.134z M320.617,155.689l-23.67,40.993h-81.899l-23.668-40.992
	c20.024-7.896,41.824-12.237,64.619-12.237C278.796,143.454,300.595,147.795,320.617,155.689z M145.943,182.028l23.618,40.918
	l-40.944,70.924h-47.34C88.021,248.802,111.852,209.251,145.943,182.028z M81.276,346.397h47.339l40.944,70.925l-23.618,40.918
	C111.852,431.016,88.021,391.465,81.276,346.397z M191.383,484.576l23.668-40.992h8.554c4.195,0,7.594-3.4,7.594-7.594
	c0-4.194-3.399-7.594-7.594-7.594h-12.938c-2.713,0-5.219,1.447-6.576,3.797l-26.65,46.159c-6.635-3.308-13.034-7.017-19.163-11.103
	l26.628-46.132c1.357-2.349,1.357-5.244,0-7.594l-45.329-78.517c-1.357-2.349-3.863-3.797-6.576-3.797H79.679
	c-0.228-3.664-0.357-7.355-0.357-11.075s0.13-7.412,0.357-11.076h53.321c2.713,0,5.219-1.448,6.576-3.797l45.329-78.517
	c1.357-2.349,1.357-5.244,0-7.594l-26.628-46.132c6.13-4.085,12.529-7.795,19.163-11.103l26.65,46.159
	c1.357,2.35,3.863,3.797,6.576,3.797h90.667c2.713,0,5.219-1.447,6.576-3.797l26.652-46.16c6.637,3.309,13.038,7.02,19.17,11.107
	l-26.635,46.13c-1.357,2.349-1.357,5.245,0,7.594l13.396,23.2c1.407,2.436,3.959,3.798,6.583,3.798c1.288,0,2.595-0.329,3.79-1.019
	c3.633-2.097,4.876-6.742,2.779-10.374l-11.205-19.404l23.625-40.916c34.088,27.223,57.917,66.773,64.663,111.839h-47.333
	l-15.566-26.957c-2.097-3.632-6.743-4.875-10.373-2.779c-3.633,2.097-4.876,6.742-2.779,10.374l17.758,30.753
	c1.357,2.349,3.863,3.797,6.576,3.797h53.314c0.228,3.665,0.357,7.356,0.357,11.076s-0.13,7.411-0.357,11.075H379.01
	c-2.713,0-5.219,1.447-6.576,3.797l-45.339,78.517c-1.357,2.35-1.357,5.245,0,7.595l26.635,46.129
	c-6.132,4.087-12.533,7.798-19.169,11.107l-26.652-46.161c-1.357-2.35-3.863-3.797-6.576-3.797h-52.415
	c-4.195,0-7.594,3.4-7.594,7.594c0,4.194,3.399,7.594,7.594,7.594h48.03l23.67,40.994c-20.023,7.895-41.822,12.235-64.616,12.235
	C233.207,496.813,211.406,492.472,191.383,484.576z M366.065,458.237l-23.625-40.915l40.954-70.924h47.333
	C423.982,391.463,400.153,431.013,366.065,458.237z"/>
<path d="M119.548,472.662l-12.755,11.228c-6.138,5.4-15.526,4.805-20.929-1.33l-39.952-45.371
	c-5.405-6.137-4.808-15.525,1.328-20.93l21.009-18.501c3.147-2.771,3.452-7.57,0.68-10.717c-2.773-3.148-7.569-3.453-10.718-0.68
	l-21.009,18.501c-12.421,10.939-13.627,29.943-2.688,42.364l39.952,45.371c5.925,6.728,14.215,10.166,22.546,10.165
	c7.047,0,14.123-2.461,19.816-7.471l12.756-11.228c3.147-2.771,3.453-7.569,0.682-10.717
	C127.497,470.198,122.697,469.892,119.548,472.662z"/>
<path d="M474.798,404.863l-21.01-18.502c-3.148-2.771-7.946-2.468-10.718,0.68c-2.771,3.147-2.467,7.946,0.68,10.717l21.01,18.502
	c6.137,5.404,6.732,14.792,1.329,20.93l-39.945,45.368c-5.403,6.137-14.789,6.733-20.929,1.332l-12.755-11.227
	c-3.147-2.771-7.946-2.466-10.717,0.682c-2.77,3.148-2.465,7.946,0.682,10.717l12.756,11.228c5.693,5.011,12.766,7.471,19.814,7.471
	c8.33-0.001,16.623-3.439,22.547-10.167l39.945-45.368C488.425,434.804,487.218,415.8,474.798,404.863z"/>
<path d="M379.947,157.965l25.267-22.248c2.975-2.617,6.792-3.918,10.741-3.67c3.953,0.252,7.572,2.027,10.19,5.001l39.944,45.374
	c5.403,6.137,4.805,15.525-1.329,20.929l-27.338,24.072c-3.148,2.771-3.453,7.57-0.681,10.717c1.5,1.705,3.596,2.575,5.702,2.575
	c1.783,0,3.572-0.624,5.015-1.894l27.339-24.073c12.42-10.938,13.628-29.941,2.691-42.362l-39.943-45.373
	c-5.298-6.018-12.624-9.613-20.625-10.123c-8.011-0.51-15.724,2.129-21.742,7.427l-25.267,22.248
	c-3.148,2.771-3.453,7.57-0.681,10.717C372.001,160.431,376.801,160.737,379.947,157.965z"/>
<path d="M37.204,214.749L64.54,238.82c1.443,1.271,3.232,1.894,5.015,1.894c2.105,0,4.201-0.871,5.702-2.575
	c2.771-3.148,2.467-7.946-0.681-10.717L47.24,203.352c-6.137-5.404-6.733-14.792-1.329-20.93l39.952-45.375
	c2.618-2.973,6.237-4.748,10.19-5c3.936-0.25,7.768,1.052,10.74,3.67l25.269,22.249c3.147,2.771,7.947,2.466,10.717-0.681
	c2.771-3.148,2.467-7.946-0.681-10.717l-25.269-22.249c-6.016-5.298-13.73-7.932-21.74-7.427
	c-8.002,0.508-15.327,4.103-20.625,10.121l-39.952,45.375C23.575,184.809,24.782,203.813,37.204,214.749z"/>
<path d="M307.911,402.451l45.333-78.52c1.357-2.349,1.357-5.245,0-7.594l-45.333-78.52c-1.357-2.349-3.863-3.797-6.576-3.797
	h-90.667c-2.713,0-5.219,1.448-6.576,3.797l-45.333,78.52c-1.357,2.349-1.357,5.245,0,7.594l45.333,78.52
	c1.357,2.349,3.863,3.797,6.576,3.797h90.667C304.047,406.247,306.554,404.799,307.911,402.451z M215.052,391.06l-40.949-70.927
	l40.949-70.927h81.899l40.949,70.927l-40.949,70.927H215.052z"/>
<path d="M174.306,130.668c1.502,3.915,5.893,5.873,9.81,4.368c3.915-1.503,5.871-5.895,4.368-9.81l-11.858-30.895
	c-1.844-4.797-1.425-10.108,1.151-14.569l32.367-56.077c3.028-5.242,8.664-8.498,14.706-8.498h62.297
	c6.042,0,11.679,3.254,14.706,8.484l32.378,56.091c2.575,4.461,2.994,9.77,1.147,14.573l-11.856,30.891
	c-1.503,3.915,0.453,8.307,4.368,9.81c0.895,0.343,1.815,0.506,2.719,0.506c3.054,0,5.932-1.855,7.091-4.874l11.854-30.885
	c3.499-9.097,2.708-19.161-2.172-27.612l-32.382-56.098C309.266,6.158,298.592,0,287.148,0h-62.297
	c-11.449,0-22.124,6.164-27.859,16.089l-32.368,56.08c-4.878,8.45-5.671,18.514-2.174,27.607L174.306,130.668z"/>
<path d="M205.684,61.528v16.55c0,4.194,3.399,7.594,7.594,7.594c4.195,0,7.594-3.4,7.594-7.594v-16.55
	c0-4.194-3.399-7.594-7.594-7.594C209.083,53.934,205.684,57.334,205.684,61.528z"/>
<path d="M291.137,61.528v16.55c0,4.194,3.399,7.594,7.594,7.594c4.195,0,7.594-3.4,7.594-7.594v-16.55
	c0-4.194-3.399-7.594-7.594-7.594C294.536,53.934,291.137,57.334,291.137,61.528z"/>
<g>
</g>
<g>
</g>
<g>
</g>
<g>
</g>
<g>
</g>
<g>
</g>
<g>
</g>
<g>
</g>
<g>
</g>
<g>
</g>
<g>
</g>
<g>
</g>
<g>
</g>
<g>
</g>
<g>
</g>
</svg>
